<svg width="24" height="16" viewBox="0 0 24 16" fill="none" xmlns="http://www.w3.org/2000/svg">
<path d="M11.1487 6.56501C11.1487 6.41324 11.1405 6.27419 11.1278 6.14424C10.9101 3.77593 8.88278 1.93109 6.4374 2.00198C4.01933 2.07286 2.05209 4.05402 2.00109 6.46686C1.95009 8.87969 3.69055 10.7754 5.95469 11.0817C6.15506 11.109 6.29896 11.2907 6.28439 11.4916C6.21699 12.4276 5.45104 13.0874 4.8208 13.4773C4.53118 13.6563 4.41551 14.018 4.55303 14.3288C4.69056 14.6405 5.04029 14.8068 5.36725 14.7059C7.54123 14.0352 10.871 11.1299 11.1223 7.05212C11.1396 6.89217 11.1487 6.7295 11.1487 6.56501Z" fill="#DBDEE3"/>
<path d="M21.8428 6.56501C21.8428 6.41324 21.8346 6.27419 21.8218 6.14424C21.6041 3.77593 19.5768 1.93109 17.1314 2.00198C14.686 2.07286 12.7461 4.05311 12.6951 6.46686C12.6459 8.82153 14.3846 10.7754 16.6487 11.0817C16.8491 11.109 16.993 11.2907 16.9784 11.4916C16.911 12.4276 16.1451 13.0874 15.5148 13.4773C15.2252 13.6563 15.1095 14.018 15.2471 14.3288C15.3846 14.6405 15.7343 14.8068 16.0613 14.7059C18.2352 14.0352 21.565 11.1299 21.8164 7.05212C21.8337 6.89217 21.8428 6.7295 21.8428 6.56501Z" fill="#DBDEE3"/>
</svg>
