<svg width="24" height="16" viewBox="0 0 24 16" fill="none" xmlns="http://www.w3.org/2000/svg">
<path d="M12.8513 9.435C12.8513 9.58676 12.8594 9.72581 12.8722 9.85577C13.0899 12.2241 15.1172 14.0689 17.5626 13.998C19.9807 13.9271 21.9479 11.946 21.9989 9.53314C22.0499 7.12031 20.3095 5.22458 18.0453 4.91831C17.8449 4.89105 17.701 4.70929 17.7156 4.50845C17.783 3.5724 18.549 2.91262 19.1792 2.52275C19.4688 2.34371 19.5845 1.98202 19.447 1.67121C19.3094 1.3595 18.9597 1.19319 18.6327 1.29406C16.4588 1.96475 13.129 4.87015 12.8777 8.94788C12.8604 9.10783 12.8513 9.2705 12.8513 9.435Z" fill="#DBDEE3"/>
<path d="M2.15723 9.435C2.15723 9.58676 2.16543 9.72581 2.17818 9.85577C2.39585 12.2241 4.4232 14.0689 6.86859 13.998C9.31397 13.9271 11.2539 11.9469 11.3049 9.53314C11.3541 7.17847 9.61543 5.22458 7.35129 4.91831C7.15092 4.89105 7.00702 4.70929 7.02159 4.50845C7.08899 3.5724 7.85494 2.91262 8.48518 2.52275C8.7748 2.34371 8.89047 1.98202 8.75294 1.67121C8.61542 1.3595 8.26569 1.19319 7.93873 1.29406C5.76475 1.96475 2.43501 4.87015 2.18365 8.94788C2.16634 9.10783 2.15723 9.2705 2.15723 9.435Z" fill="#DBDEE3"/>
</svg>
