<svg viewBox="0 0 22 18" fill="currentColor" xmlns="http://www.w3.org/2000/svg">
<path d="M22 7.14317C22 10.0855 21.1316 12.5254 19.3947 14.463C17.6579 16.4365 15.2456 17.5489 12.1579 17.8L12.1579 13.5481C13.6632 13.4045 14.8596 12.8842 15.7474 11.9872C16.5965 11.0902 17.0211 9.94194 17.0211 8.54256L12.8526 8.54256L12.8526 0.200048L22 0.200048L22 7.14317ZM9.84211 7.14317C9.84211 10.0855 8.97368 12.5254 7.23684 14.463C5.5 16.4365 3.08772 17.5489 0 17.8L3.71721e-07 13.5481C1.50526 13.4045 2.70176 12.8842 3.58947 11.9872C4.4386 11.0902 4.86316 9.94194 4.86316 8.54256L0.694737 8.54255L0.694738 0.200047L9.84211 0.200047L9.84211 7.14317Z" fill="currentColor"/>
</svg>
