<svg width="36" height="37" viewBox="0 0 36 37" fill="none" xmlns="http://www.w3.org/2000/svg">
<g clip-path="url(#clip0_7487_29695)">
<path d="M6.75 9.5C6.75 7.01472 8.76472 5 11.25 5H21.3089L29.25 14V27.5C29.25 29.9853 27.2353 32 24.75 32H11.25C8.76472 32 6.75 29.9853 6.75 27.5V9.5Z" fill="#BCC0C6"/>
<path d="M21.3086 9.5V5L29.2497 14H25.8086C23.3233 14 21.3086 11.9853 21.3086 9.5Z" fill="#E2E5E9"/>
<path fill-rule="evenodd" clip-rule="evenodd" d="M18 14.75C18.4142 14.75 18.75 15.0858 18.75 15.5V18.5H21.75C22.1642 18.5 22.5 18.8358 22.5 19.25C22.5 19.6642 22.1642 20 21.75 20H18.75V23C18.75 23.4142 18.4142 23.75 18 23.75C17.5858 23.75 17.25 23.4142 17.25 23L17.25 20H14.25C13.8358 20 13.5 19.6642 13.5 19.25C13.5 18.8358 13.8358 18.5 14.25 18.5H17.25V15.5C17.25 15.0858 17.5858 14.75 18 14.75Z" fill="white"/>
</g>
<defs>
<clipPath id="clip0_7487_29695">
<rect width="36" height="36" fill="white" transform="translate(0 0.5)"/>
</clipPath>
</defs>
</svg>
