<svg viewBox="0 0 15 20" fill="currentColor" xmlns="http://www.w3.org/2000/svg">
<path d="M0 16.38V14.88H1.81V7.42C1.81 6.08 2.23 4.89 3.06 3.85C3.89 2.82 4.96 2.16 6.26 1.87V1.25C6.26 0.9 6.38 0.61 6.62 0.36C6.86 0.12 7.16 0 7.5 0C7.84 0 8.14 0.12 8.39 0.36C8.63 0.6 8.76 0.9 8.76 1.25V1.87C10.06 2.16 11.13 2.82 11.96 3.85C12.79 4.88 13.21 6.07 13.21 7.42V14.88H15.02V16.38H0.02H0ZM7.5 19.19C7 19.19 6.58 19.01 6.22 18.66C5.87 18.31 5.69 17.88 5.69 17.38H9.31C9.31 17.88 9.13 18.3 8.78 18.66C8.43 19.01 8 19.19 7.5 19.19ZM3.31 14.88H11.69V7.42C11.69 6.26 11.28 5.27 10.46 4.46C9.64 3.64 8.65 3.23 7.5 3.23C6.35 3.23 5.35 3.64 4.54 4.46C3.72 5.28 3.31 6.27 3.31 7.42V14.88Z" fill="currentColor"/>
</svg>
