<svg viewBox="0 0 18 18" fill="currentColor" xmlns="http://www.w3.org/2000/svg">
<path d="M16.9005 18L10.3246 11.4241C9.80105 11.8534 9.20419 12.199 8.51309 12.4398C7.83246 12.6806 7.13089 12.8063 6.39791 12.8063C4.60733 12.8063 3.089 12.1885 1.8534 10.9424C0.617801 9.70681 0 8.19895 0 6.40838C0 4.6178 0.617801 3.09948 1.86387 1.86387C3.09948 0.617801 4.6178 0 6.39791 0C8.17801 0 9.70681 0.617801 10.9424 1.86387C12.178 3.09948 12.8063 4.6178 12.8063 6.40838C12.8063 7.15183 12.6806 7.87434 12.4293 8.55497C12.178 9.2356 11.8429 9.83246 11.4241 10.3351L18 16.911L16.9005 18.0105V18ZM6.40838 11.2356C7.75916 11.2356 8.90052 10.7644 9.83246 9.83246C10.7644 8.90052 11.2356 7.74869 11.2356 6.40838C11.2356 5.06806 10.7644 3.91623 9.83246 2.98429C8.90052 2.05236 7.74869 1.58115 6.40838 1.58115C5.06806 1.58115 3.91623 2.05236 2.98429 2.98429C2.05236 3.91623 1.58115 5.06806 1.58115 6.40838C1.58115 7.74869 2.05236 8.90052 2.98429 9.83246C3.91623 10.7644 5.06806 11.2356 6.40838 11.2356Z" fill="currentColor"/>
</svg>
