<svg viewBox="0 0 19 19" fill="currentColor" xmlns="http://www.w3.org/2000/svg">
<path d="M5.5 8.38C5.74 8.38 5.95 8.29 6.13 8.12C6.31 7.95 6.39 7.74 6.39 7.49C6.39 7.24 6.3 7.04 6.13 6.86C5.96 6.68 5.75 6.6 5.5 6.6C5.26 6.6 5.05 6.69 4.87 6.86C4.69 7.03 4.61 7.24 4.61 7.49C4.61 7.74 4.7 7.94 4.87 8.12C5.04 8.3 5.25 8.38 5.5 8.38ZM9.5 8.38C9.74 8.38 9.95 8.29 10.13 8.12C10.31 7.95 10.39 7.74 10.39 7.49C10.39 7.25 10.3 7.04 10.13 6.86C9.96 6.68 9.75 6.6 9.5 6.6C9.26 6.6 9.05 6.69 8.87 6.86C8.69 7.03 8.61 7.24 8.61 7.49C8.61 7.74 8.7 7.94 8.87 8.12C9.04 8.3 9.25 8.38 9.5 8.38ZM13.5 8.38C13.74 8.38 13.95 8.29 14.13 8.12C14.31 7.95 14.39 7.74 14.39 7.49C14.39 7.25 14.3 7.04 14.13 6.86C13.96 6.68 13.75 6.6 13.5 6.6C13.26 6.6 13.05 6.69 12.87 6.86C12.69 7.03 12.61 7.24 12.61 7.49C12.61 7.73 12.7 7.94 12.87 8.12C13.04 8.3 13.25 8.38 13.5 8.38ZM0 18.54V1.81C0 1.3 0.18 0.88 0.53 0.53C0.88 0.18 1.31 0 1.81 0H17.19C17.7 0 18.12 0.18 18.47 0.53C18.82 0.88 19 1.31 19 1.81V13.19C19 13.7 18.82 14.12 18.47 14.47C18.12 14.82 17.69 15 17.19 15H3.54L0 18.54ZM2.9 13.5H17.19C17.27 13.5 17.34 13.47 17.4 13.4C17.46 13.34 17.5 13.27 17.5 13.19V1.81C17.5 1.73 17.47 1.66 17.4 1.6C17.34 1.54 17.27 1.5 17.19 1.5H1.81C1.73 1.5 1.66 1.53 1.6 1.6C1.54 1.66 1.5 1.73 1.5 1.81V14.89L2.9 13.51V13.5Z" fill="currentColor"/>
</svg>
