<svg viewBox="0 0 19 19" fill="currentColor" xmlns="http://www.w3.org/2000/svg">
<path d="M9.5 9.09713C8.284 9.09713 7.23267 8.65527 6.37133 7.75855C5.49733 6.86183 5.06667 5.79617 5.06667 4.54856C5.06667 3.30096 5.49733 2.2223 6.37133 1.33858C7.23267 0.44186 8.284 0 9.5 0C10.716 0 11.7673 0.44186 12.6287 1.33858C13.5027 2.23529 13.9333 3.30096 13.9333 4.54856C13.9333 5.79617 13.5027 6.87483 12.6287 7.75855C11.7547 8.65527 10.716 9.09713 9.5 9.09713ZM0 19V16.1149C0 15.4781 0.164667 14.8933 0.506667 14.3475C0.848667 13.8016 1.292 13.3858 1.862 13.0999C3.116 12.4761 4.38267 11.9952 5.64933 11.6833C6.92867 11.3714 8.208 11.2155 9.5 11.2155C10.792 11.2155 12.084 11.3714 13.3507 11.6833C14.6173 11.9952 15.884 12.4761 17.138 13.0999C17.6953 13.3858 18.1513 13.8146 18.4933 14.3475C18.8353 14.8933 19 15.4781 19 16.1149V19H0ZM1.9 17.0506H17.1V16.1149C17.1 15.855 17.024 15.6081 16.872 15.3871C16.72 15.1662 16.5173 14.9843 16.264 14.8413C15.1747 14.2955 14.06 13.8666 12.92 13.5937C11.78 13.3078 10.64 13.1648 9.48733 13.1648C8.33467 13.1648 7.182 13.3078 6.05467 13.5937C4.91467 13.8796 3.81267 14.2955 2.71067 14.8413C2.45733 14.9843 2.25467 15.1662 2.10267 15.3871C1.95067 15.6081 1.87467 15.855 1.87467 16.1149V17.0506H1.9ZM9.5 7.14774C10.1967 7.14774 10.792 6.88783 11.286 6.38098C11.78 5.87415 12.0333 5.26334 12.0333 4.54856C12.0333 3.83379 11.78 3.22298 11.286 2.71614C10.792 2.2093 10.1967 1.94938 9.5 1.94938C8.80333 1.94938 8.208 2.2093 7.714 2.71614C7.22 3.22298 6.96667 3.83379 6.96667 4.54856C6.96667 5.26334 7.22 5.87415 7.714 6.38098C8.208 6.88783 8.80333 7.14774 9.5 7.14774Z" fill="currentColor"/>
</svg>
