<svg width="15" height="16" viewBox="0 0 15 16" fill="none" xmlns="http://www.w3.org/2000/svg">
<g clip-path="url(#clip0_23_649)">
<path d="M2.87888 15.8C2.40221 15.8 2.00181 15.6336 1.65861 15.3101C1.32495 14.9867 1.15335 14.5893 1.15335 14.1272V2.39948H0.200012V1.01322H4.49001V0.199951H10.21V1.01322H14.5V2.39948H13.5467V14.1272C13.5467 14.5985 13.3751 14.9867 13.0414 15.3101C12.7077 15.6336 12.2978 15.8 11.8211 15.8H2.87888ZM12.1167 2.39948H2.58335V14.1272C2.58335 14.2104 2.61195 14.2751 2.66915 14.3305C2.72635 14.386 2.79308 14.4137 2.87888 14.4137H11.8211C11.8974 14.4137 11.9641 14.386 12.0213 14.3213C12.0785 14.2658 12.1167 14.2011 12.1167 14.1272V2.39948ZM4.87135 12.5654H6.30135V4.24782H4.87135V12.5654ZM8.38915 12.5654H9.81915V4.24782H8.38915V12.5654Z" fill="#999999"/>
</g>
<defs>
<clipPath id="clip0_23_649">
<rect width="14.3" height="15.6" fill="white" transform="translate(0.200012 0.199951)"/>
</clipPath>
</defs>
</svg>
