<svg width="14" height="13" viewBox="0 0 14 13" fill="none" xmlns="http://www.w3.org/2000/svg">
<g clip-path="url(#clip0_23_575)">
<path d="M12.2435 12.9133L7.8609 8.53073C7.51307 8.80899 7.10959 9.0316 6.65742 9.1916C6.20524 9.3516 5.72524 9.43508 5.21046 9.43508C3.94437 9.43508 2.88003 8.99682 2.0035 8.1203C1.12698 7.24378 0.688721 6.17247 0.688721 4.91334C0.688721 3.65421 1.13394 2.58291 2.01046 1.70638C2.88698 0.829862 3.95133 0.391602 5.21742 0.391602C6.4835 0.391602 7.54785 0.829862 8.42437 1.70638C9.30089 2.58291 9.73916 3.65421 9.73916 4.91334C9.73916 5.42117 9.65568 5.90812 9.49568 6.3603C9.33568 6.81247 9.11307 7.21595 8.83481 7.56378L13.2174 11.9464L12.2435 12.9203V12.9133ZM5.21742 8.04378C6.08698 8.04378 6.82437 7.73769 7.43655 7.13247C8.04872 6.52725 8.34785 5.78291 8.34785 4.91334C8.34785 4.04378 8.04176 3.30638 7.43655 2.69421C6.83133 2.08204 6.08698 1.78291 5.21742 1.78291C4.34785 1.78291 3.61046 2.08899 2.99829 2.69421C2.38611 3.29943 2.08698 4.04378 2.08698 4.91334C2.08698 5.78291 2.39307 6.5203 2.99829 7.13247C3.6035 7.74465 4.34785 8.04378 5.21742 8.04378Z" fill="#D1D1D1"/>
</g>
<defs>
<clipPath id="clip0_23_575">
<rect width="12.5217" height="12.5217" fill="white" transform="translate(0.695801 0.391602)"/>
</clipPath>
</defs>
</svg>
