<svg width="16" height="14" viewBox="0 0 16 14" fill="none" xmlns="http://www.w3.org/2000/svg">
<g clip-path="url(#clip0_4634_13995)">
<path d="M0.385742 12.6033V10.7245C0.385742 10.3098 0.495759 9.92902 0.724255 9.57358C0.95275 9.21814 1.24895 8.94733 1.62978 8.76115C2.46759 8.35493 3.31387 8.04181 4.16016 7.8387C5.0149 7.6356 5.86964 7.53404 6.73285 7.53404C7.18138 7.53404 7.62991 7.55943 8.07844 7.61867C8.52697 7.67791 8.96703 7.76254 9.41556 7.87255L8.35771 8.94733C8.07844 8.90502 7.80763 8.87117 7.54528 8.84578C7.28293 8.82039 7.01212 8.80346 6.73285 8.80346C5.96273 8.80346 5.19262 8.89655 4.43943 9.08274C3.67777 9.26892 2.94151 9.53973 2.20525 9.89517C2.03599 9.98826 1.90059 10.1067 1.79903 10.2506C1.69748 10.3945 1.6467 10.5553 1.6467 10.7245V11.3338H6.65668V12.6033H0.385742ZM8.52696 13.6103V11.3762L13.1223 6.80624C13.2238 6.70469 13.3423 6.62852 13.4608 6.58621C13.5793 6.54389 13.7062 6.5185 13.8247 6.5185C13.9601 6.5185 14.087 6.54389 14.214 6.59467C14.3409 6.64545 14.4509 6.72161 14.5525 6.82317L15.3395 7.61021C15.4326 7.71176 15.5003 7.83024 15.5511 7.94872C15.6019 8.0672 15.6273 8.19414 15.6273 8.31262C15.6273 8.4311 15.6019 8.55804 15.5596 8.68498C15.5172 8.81193 15.4411 8.93041 15.3395 9.03196L10.7696 13.6019H8.53543L8.52696 13.6103ZM9.53404 12.6033H10.338L13.0884 9.84439L12.6991 9.43817L12.3014 9.04042L9.53404 11.7993V12.6033ZM12.6991 9.43817L12.3014 9.04042L13.0884 9.83593L12.6991 9.42971V9.43817ZM6.74131 6.1546C5.92888 6.1546 5.22647 5.86687 4.651 5.28293C4.06706 4.699 3.77933 4.00505 3.77933 3.19262C3.77933 2.38019 4.06706 1.67778 4.651 1.10231C5.21801 0.518372 5.92042 0.230637 6.73285 0.230637C7.54528 0.230637 8.24769 0.518372 8.82316 1.10231C9.4071 1.68624 9.69483 2.38019 9.69483 3.19262C9.69483 4.00505 9.4071 4.70746 8.82316 5.28293C8.23923 5.86687 7.54528 6.1546 6.73285 6.1546H6.74131ZM6.74131 4.88518C7.20677 4.88518 7.60452 4.71593 7.93457 4.38588C8.26462 4.05583 8.43387 3.65807 8.43387 3.19262C8.43387 2.72717 8.26462 2.32941 7.93457 1.99936C7.60452 1.66931 7.20677 1.50006 6.74131 1.50006C6.27586 1.50006 5.87811 1.66931 5.54806 1.99936C5.21801 2.32941 5.04875 2.72717 5.04875 3.19262C5.04875 3.65807 5.21801 4.05583 5.54806 4.38588C5.87811 4.71593 6.27586 4.88518 6.74131 4.88518Z" fill="#464646"/>
</g>
<defs>
<clipPath id="clip0_4634_13995">
<rect width="15.2331" height="13.3797" fill="white" transform="translate(0.385742 0.230637)"/>
</clipPath>
</defs>
</svg>
