<svg width="15" height="15" viewBox="0 0 15 15" fill="none" xmlns="http://www.w3.org/2000/svg">
<g clip-path="url(#clip0_4634_14027)">
<path d="M7.51765 12.4147C7.77353 12.4147 7.98529 12.3265 8.15294 12.15C8.32941 11.9735 8.41765 11.7618 8.41765 11.5147C8.41765 11.2676 8.32941 11.0471 8.15294 10.8794C7.97647 10.7118 7.76471 10.6147 7.51765 10.6147C7.27059 10.6147 7.05 10.7029 6.88235 10.8794C6.70588 11.0559 6.61765 11.2676 6.61765 11.5147C6.61765 11.7618 6.70588 11.9824 6.88235 12.15C7.05882 12.3265 7.27059 12.4147 7.51765 12.4147ZM6.89118 9.25588H8.13529C8.14412 8.79706 8.21471 8.44412 8.32941 8.19706C8.45294 7.95882 8.69118 7.65 9.06176 7.28824C9.52941 6.82059 9.86471 6.42353 10.0676 6.08824C10.2706 5.76177 10.3676 5.38235 10.3676 4.96765C10.3676 4.23529 10.1206 3.64412 9.61765 3.19412C9.11471 2.74412 8.47059 2.52353 7.68529 2.52353C6.97059 2.52353 6.35294 2.70882 5.84118 3.07059C5.32941 3.43235 4.96765 3.90882 4.75588 4.5L5.88529 4.95882C6.00882 4.58824 6.22059 4.27941 6.51177 4.04118C6.80294 3.80294 7.17353 3.68824 7.60588 3.68824C8.08235 3.68824 8.45294 3.82059 8.71765 4.07647C8.98235 4.33235 9.11471 4.65 9.11471 5.02059C9.11471 5.29412 9.03529 5.55882 8.86765 5.82353C8.7 6.08824 8.45294 6.37059 8.11765 6.67059C7.64118 7.10294 7.31471 7.5 7.13824 7.87059C6.96176 8.24118 6.87353 8.7 6.87353 9.25588H6.89118ZM1.59706 15C1.14706 15 0.776471 14.8412 0.467647 14.5324C0.158824 14.2235 0 13.8441 0 13.4029V1.59706C0 1.14706 0.158824 0.776471 0.467647 0.467647C0.776471 0.158824 1.15588 0 1.59706 0H13.4029C13.8529 0 14.2235 0.158824 14.5324 0.467647C14.8412 0.776471 15 1.15588 15 1.59706V13.4029C15 13.8529 14.8412 14.2235 14.5324 14.5324C14.2235 14.8412 13.8441 15 13.4029 15H1.59706ZM1.59706 13.6765H13.4029C13.4735 13.6765 13.5353 13.65 13.5882 13.5882C13.6412 13.5353 13.6765 13.4735 13.6765 13.4029V1.59706C13.6765 1.52647 13.65 1.46471 13.5882 1.41176C13.5353 1.35882 13.4735 1.32353 13.4029 1.32353H1.59706C1.52647 1.32353 1.46471 1.35 1.41176 1.41176C1.35882 1.46471 1.32353 1.52647 1.32353 1.59706V13.4029C1.32353 13.4735 1.35 13.5353 1.41176 13.5882C1.46471 13.6412 1.52647 13.6765 1.59706 13.6765Z" fill="#464646"/>
</g>
<defs>
<clipPath id="clip0_4634_14027">
<rect width="15" height="15" fill="white"/>
</clipPath>
</defs>
</svg>
