<svg width="15" height="15" viewBox="0 0 15 15" fill="none" xmlns="http://www.w3.org/2000/svg">
<g clip-path="url(#clip0_4634_14018)">
<path d="M1.91751 14.7724C1.48591 14.7724 1.13047 14.62 0.834271 14.3238C0.538073 14.0276 0.385742 13.6637 0.385742 13.2406V1.91736C0.385742 1.48575 0.538073 1.13032 0.834271 0.834119C1.13047 0.53792 1.49437 0.38559 1.91751 0.38559H7.58759V1.65501H1.91751C1.84981 1.65501 1.79057 1.6804 1.73979 1.73964C1.68901 1.79042 1.65516 1.84966 1.65516 1.91736V13.2406C1.65516 13.3083 1.68055 13.3675 1.73979 13.4183C1.79057 13.4691 1.84981 13.5029 1.91751 13.5029H7.58759V14.7724H1.91751ZM11.1589 11.1926L10.2788 10.2786L12.3352 8.22215H5.12492V6.95273H12.3437L10.2872 4.89627L11.1674 3.98228L14.781 7.5959L11.1674 11.2095L11.1589 11.1926Z" fill="#464646"/>
</g>
<defs>
<clipPath id="clip0_4634_14018">
<rect width="14.3868" height="14.3868" fill="white" transform="translate(0.385742 0.38559)"/>
</clipPath>
</defs>
</svg>
