<svg width="13" height="13" viewBox="0 0 13 13" fill="none" xmlns="http://www.w3.org/2000/svg">
<g clip-path="url(#clip0_4634_13983)">
<path d="M6.57758 6.00144C5.76515 6.00144 5.06273 5.71371 4.48726 5.12977C3.90333 4.54584 3.61559 3.85189 3.61559 3.03946C3.61559 2.22703 3.90333 1.52462 4.48726 0.949146C5.06273 0.365212 5.76515 0.0774765 6.57758 0.0774765C7.39001 0.0774765 8.09242 0.365212 8.66789 0.949146C9.25182 1.53308 9.53956 2.22703 9.53956 3.03946C9.53956 3.85189 9.25182 4.5543 8.66789 5.12977C8.08396 5.71371 7.39001 6.00144 6.57758 6.00144ZM0.230469 12.4501V10.5714C0.230469 10.1567 0.340485 9.77586 0.568981 9.42042C0.797477 9.06498 1.09368 8.79417 1.4745 8.60799C2.31232 8.20177 3.1586 7.88865 4.00488 7.68554C4.85963 7.48244 5.71437 7.38088 6.57758 7.38088C7.44078 7.38088 8.30399 7.48244 9.15027 7.68554C9.99655 7.88865 10.8428 8.20177 11.6807 8.60799C12.053 8.79417 12.3577 9.07344 12.5862 9.42042C12.8147 9.77586 12.9247 10.1567 12.9247 10.5714V12.4501H0.230469ZM1.49989 11.1807H11.6553V10.5714C11.6553 10.4021 11.6045 10.2413 11.5029 10.0974C11.4014 9.95358 11.266 9.8351 11.0967 9.74201C10.3689 9.38657 9.62419 9.1073 8.86253 8.92958C8.10088 8.74339 7.33923 8.6503 6.56911 8.6503C5.799 8.6503 5.02888 8.74339 4.27569 8.92958C3.51404 9.11576 2.77777 9.38657 2.04151 9.74201C1.87225 9.8351 1.73685 9.95358 1.6353 10.0974C1.53374 10.2413 1.48296 10.4021 1.48296 10.5714V11.1807H1.49989ZM6.57758 4.73202C7.04303 4.73202 7.44078 4.56277 7.77083 4.23272C8.10088 3.90267 8.27014 3.50491 8.27014 3.03946C8.27014 2.57401 8.10088 2.17625 7.77083 1.8462C7.44078 1.51615 7.04303 1.3469 6.57758 1.3469C6.11212 1.3469 5.71437 1.51615 5.38432 1.8462C5.05427 2.17625 4.88501 2.57401 4.88501 3.03946C4.88501 3.50491 5.05427 3.90267 5.38432 4.23272C5.71437 4.56277 6.11212 4.73202 6.57758 4.73202Z" fill="#464646"/>
</g>
<defs>
<clipPath id="clip0_4634_13983">
<rect width="12.6942" height="12.3726" fill="white" transform="translate(0.230469 0.0774765)"/>
</clipPath>
</defs>
</svg>
