<svg width="15" height="17" viewBox="0 0 15 17" fill="none" xmlns="http://www.w3.org/2000/svg">
<g clip-path="url(#clip0_4634_13987)">
<path d="M2.50144 16.3041C1.90905 16.3041 1.40974 16.101 1.00353 15.6863C0.597312 15.2801 0.385742 14.7808 0.385742 14.1884V12.0727H2.92459V0.385582L4.09245 1.39266L5.27725 0.385582L6.46204 1.39266L7.64683 0.385582L8.83163 1.39266L10.0164 0.385582L11.2012 1.39266L12.386 0.385582L13.5708 1.39266L14.7387 0.385582V14.1884C14.7387 14.7808 14.5356 15.2801 14.1209 15.6863C13.7147 16.0926 13.2069 16.3041 12.623 16.3041H2.50144ZM12.6568 15.0347C12.8938 15.0347 13.0969 14.9501 13.2577 14.7893C13.4185 14.6285 13.5031 14.4254 13.5031 14.1884V2.34049H4.19401V12.0727H11.8105V14.1884C11.8105 14.4254 11.8952 14.6285 12.056 14.7893C12.2168 14.9501 12.4199 15.0347 12.6568 15.0347ZM5.20108 5.51404V4.24462H9.99949V5.51404H5.20108ZM5.20108 8.05289V6.78347H9.99949V8.05289H5.20108ZM11.7598 5.62406C11.5567 5.62406 11.3789 5.5479 11.2266 5.40403C11.0743 5.26016 11.0066 5.08244 11.0066 4.87087C11.0066 4.6593 11.0827 4.49004 11.2266 4.33771C11.3705 4.18538 11.5482 4.11768 11.7598 4.11768C11.9713 4.11768 12.1406 4.19385 12.2929 4.33771C12.4452 4.48158 12.5129 4.6593 12.5129 4.87087C12.5129 5.08244 12.4368 5.2517 12.2929 5.40403C12.149 5.55636 11.9713 5.62406 11.7598 5.62406ZM11.7598 8.1629C11.5567 8.1629 11.3789 8.08674 11.2266 7.94287C11.0827 7.799 11.0066 7.62128 11.0066 7.40971C11.0066 7.19814 11.0827 7.02889 11.2266 6.87656C11.3705 6.72423 11.5482 6.65652 11.7598 6.65652C11.9713 6.65652 12.1406 6.73269 12.2929 6.87656C12.4452 7.02042 12.5129 7.19814 12.5129 7.40971C12.5129 7.62128 12.4368 7.79054 12.2929 7.94287C12.149 8.0952 11.9713 8.1629 11.7598 8.1629ZM2.50144 15.0347H10.5411V13.3421H1.65516V14.1884C1.65516 14.4254 1.73979 14.6285 1.90059 14.7893C2.06138 14.9501 2.26449 15.0347 2.50144 15.0347Z" fill="#464646"/>
</g>
<defs>
<clipPath id="clip0_4634_13987">
<rect width="14.3868" height="15.9185" fill="white" transform="translate(0.385742 0.385582)"/>
</clipPath>
</defs>
</svg>
