<svg width="17" height="16" viewBox="0 0 17 16" fill="none" xmlns="http://www.w3.org/2000/svg">
<g clip-path="url(#clip0_4634_14010)">
<path d="M4.1263 12.7582C3.91473 12.7582 3.73702 12.6905 3.59315 12.5466C3.44928 12.4028 3.38158 12.2251 3.38158 12.0135V10.7441H13.8501L14.1209 11.0149V3.34757H15.3903C15.6019 3.34757 15.7796 3.41528 15.9235 3.55914C16.0673 3.70301 16.135 3.88073 16.135 4.0923V15.7456L13.1392 12.7498H4.1263V12.7582ZM0.385742 12.0389V1.13032C0.385742 0.918747 0.453445 0.741028 0.597312 0.59716C0.74118 0.453292 0.918899 0.38559 1.13047 0.38559H11.6751C11.8867 0.38559 12.0644 0.453292 12.2083 0.59716C12.3522 0.741028 12.4199 0.918747 12.4199 1.13032V8.28985C12.4199 8.50142 12.3522 8.67914 12.2083 8.82301C12.0644 8.96688 11.8867 9.03458 11.6751 9.03458H3.38158L0.385742 12.0304V12.0389ZM11.1589 7.77362V1.65501H1.65516V8.35756L2.2391 7.77362H11.1589Z" fill="#464646"/>
</g>
<defs>
<clipPath id="clip0_4634_14010">
<rect width="15.7578" height="15.36" fill="white" transform="translate(0.385742 0.38559)"/>
</clipPath>
</defs>
</svg>
