<svg width="17" height="17" viewBox="0 0 17 17" fill="none" xmlns="http://www.w3.org/2000/svg">
<g clip-path="url(#clip0_4634_14014)">
<path d="M6.38571 16.6181L6.06413 14.0369C5.83563 13.9607 5.60713 13.8507 5.37017 13.7153C5.13322 13.5799 4.92165 13.4361 4.73546 13.2753L2.34895 14.2823L0.394043 10.8972L2.45897 9.34005C2.44204 9.21311 2.42512 9.08617 2.41665 8.95922C2.40819 8.83228 2.40819 8.70534 2.40819 8.5784C2.40819 8.45145 2.40819 8.33297 2.41665 8.2145C2.41665 8.08755 2.44204 7.95215 2.45897 7.80828L0.394043 6.25112L2.34895 2.88293L4.727 3.88154C4.93011 3.72074 5.15014 3.56841 5.37864 3.44147C5.60713 3.30607 5.83563 3.19605 6.06413 3.11988L6.39417 0.538727H10.304L10.6256 3.12835C10.8795 3.22144 11.108 3.33145 11.3111 3.44993C11.5142 3.57688 11.7257 3.72074 11.9373 3.88154L14.3492 2.88293L16.3041 6.25112L14.2053 7.83367C14.2392 7.96907 14.2561 8.09602 14.2561 8.2145C14.2561 8.33297 14.2561 8.45145 14.2561 8.56993C14.2561 8.68841 14.2561 8.79843 14.2561 8.91691C14.2561 9.03539 14.2307 9.17079 14.1969 9.32312L16.2787 10.8887L14.3238 14.2739L11.9373 13.2583C11.7257 13.4276 11.5142 13.5715 11.2941 13.6984C11.0741 13.8253 10.8541 13.9354 10.6256 14.0115L10.304 16.6011H6.39417L6.38571 16.6181ZM7.49434 15.3486H9.16151L9.46617 13.0806C9.89778 12.9706 10.2955 12.8098 10.651 12.5982C11.0064 12.3867 11.3534 12.1243 11.6834 11.7943L13.7822 12.6744L14.6116 11.2357L12.7751 9.85628C12.8428 9.63625 12.8936 9.42468 12.919 9.21311C12.9444 9.00154 12.9613 8.78997 12.9613 8.5784C12.9613 8.36683 12.9444 8.14679 12.919 7.94369C12.8936 7.74058 12.8428 7.52901 12.7751 7.31744L14.6285 5.92107L13.7991 4.4824L11.675 5.37945C11.3957 5.07479 11.0487 4.81245 10.6594 4.57549C10.2617 4.34699 9.86393 4.17774 9.45771 4.08464L9.1869 1.81661H7.51127L7.23199 4.07618C6.80039 4.17774 6.40264 4.33853 6.03874 4.54164C5.67484 4.75321 5.32786 5.02402 4.98935 5.35407L2.89057 4.4824L2.06122 5.92107L3.88918 7.28359C3.82148 7.48669 3.7707 7.6898 3.73685 7.90983C3.71146 8.12987 3.69454 8.35836 3.69454 8.59532C3.69454 8.81536 3.71146 9.03539 3.73685 9.24696C3.76224 9.45853 3.81302 9.6701 3.88072 9.87321L2.06122 11.2526L2.89057 12.6913L4.98935 11.8027C5.31094 12.1328 5.65791 12.4036 6.02181 12.6152C6.38571 12.8267 6.79193 12.9875 7.23199 13.0975L7.51127 15.3571L7.49434 15.3486ZM8.34908 11.1172C9.0515 11.1172 9.65236 10.8718 10.1432 10.3725C10.634 9.88167 10.8879 9.28081 10.8879 8.5784C10.8879 7.87598 10.6425 7.27512 10.1432 6.78428C9.65236 6.29344 9.0515 6.03955 8.34908 6.03955C7.64667 6.03955 7.03735 6.28498 6.54651 6.78428C6.05566 7.27512 5.81024 7.87598 5.81024 8.5784C5.81024 9.28081 6.05566 9.88167 6.54651 10.3725C7.03735 10.8634 7.63821 11.1172 8.34908 11.1172Z" fill="#464646"/>
</g>
<defs>
<clipPath id="clip0_4634_14014">
<rect width="15.9016" height="16.0793" fill="white" transform="translate(0.385742 0.538727)"/>
</clipPath>
</defs>
</svg>
