<svg width="20" height="20" viewBox="0 0 20 20" fill="none" xmlns="http://www.w3.org/2000/svg">
<path fill-rule="evenodd" clip-rule="evenodd" d="M10 0C7.28167 0 6.94957 -5.9568e-08 5.87946 0.0615006C5.04305 0.0738007 4.23124 0.233702 3.44404 0.528905C2.10332 1.04551 1.04551 2.10332 0.528905 3.44403C0.233702 4.21894 0.0861008 5.04305 0.0615006 5.86716C0.0123001 6.93727 0 7.28167 0 10C0 12.7183 -5.9568e-08 13.0504 0.0615006 14.1205C0.0738007 14.9447 0.233702 15.7688 0.528905 16.5437C1.04551 17.8844 2.11562 18.9545 3.45633 19.4711C4.23124 19.7663 5.05535 19.9139 5.87946 19.9385C6.94957 19.9877 7.28167 20 10 20C12.7183 20 13.0504 19.9877 14.1205 19.9385C14.9447 19.9262 15.7688 19.7663 16.5437 19.4711C17.8844 18.9545 18.9545 17.8844 19.4711 16.5437C19.7663 15.7688 19.9139 14.9447 19.9385 14.1205C19.9877 13.0504 20 12.7183 20 10C20 7.28167 19.9877 6.94957 19.9385 5.87946C19.9262 5.04305 19.7663 4.23124 19.4711 3.44403C18.9545 2.10332 17.8844 1.03321 16.5437 0.516605C15.7688 0.221402 14.9447 0.0738007 14.1205 0.0492004C13.0504 0.0123001 12.7183 0 10 0ZM10 1.80812C12.6691 1.80812 12.9889 1.80812 14.0344 1.86962C14.674 1.86962 15.3014 1.99262 15.8918 2.21402C16.7651 2.54613 17.4539 3.23493 17.786 4.10824C18.0074 4.69865 18.1181 5.32595 18.1304 5.96556C18.1796 7.02337 18.1919 7.33087 18.1919 10C18.1919 12.6691 18.1919 12.9889 18.1304 14.0344C18.1304 14.674 18.0074 15.3014 17.786 15.8918C17.4539 16.7651 16.7651 17.4539 15.8918 17.786C15.3014 18.0074 14.674 18.1181 14.0344 18.1304C12.9766 18.1796 12.6691 18.1919 10 18.1919C7.33087 18.1919 7.01107 18.1919 5.96556 18.1304C5.32595 18.1304 4.69865 18.0074 4.10824 17.786C3.23493 17.4539 2.54613 16.7651 2.21402 15.8918C1.99262 15.3014 1.88192 14.674 1.86962 14.0344C1.82042 12.9766 1.80812 12.6691 1.80812 10C1.80812 7.33087 1.80812 7.01107 1.86962 5.96556C1.86962 5.32595 1.99262 4.69865 2.21402 4.10824C2.54613 3.23493 3.23493 2.54613 4.10824 2.21402C4.69865 1.99262 5.32595 1.88192 5.96556 1.86962C7.02337 1.82042 7.33087 1.80812 10 1.80812ZM10 13.3333C8.15498 13.3333 6.66667 11.845 6.66667 10C6.66667 8.15498 8.15498 6.66667 10 6.66667C11.845 6.66667 13.3333 8.15498 13.3333 10C13.3333 11.845 11.845 13.3333 10 13.3333ZM10 4.87085C7.15867 4.87085 4.85855 7.17097 4.85855 10C4.85855 12.8413 7.15867 15.1415 9.9877 15.1415C12.8167 15.1415 15.1292 12.8413 15.1292 10.0123C15.1292 7.18327 12.829 4.88315 10 4.87085ZM16.5314 4.67405C16.5314 5.33825 15.9902 5.87946 15.326 5.87946C14.6617 5.87946 14.1205 5.33825 14.1205 4.67405C14.1205 4.00984 14.6617 3.46864 15.326 3.46864C15.9902 3.46864 16.5314 4.00984 16.5314 4.67405Z" fill="#BDBDBD"/>
</svg>
