<svg width="21" height="22" viewBox="0 0 21 22" fill="none" xmlns="http://www.w3.org/2000/svg">
<path d="M10.5 0C4.69837 0 0 4.30394 0 9.61558C0 13.5428 1.6644 15.4075 3.9375 17.1216H3.94701V21.7269C3.94701 21.8776 4.07065 21.9906 4.21332 21.9906C4.27038 21.9906 4.32745 21.9717 4.375 21.9341L8.36005 19.0051L8.44565 19.0428C9.13043 19.1652 9.81522 19.2312 10.5095 19.2312C16.3111 19.2312 21.0095 14.9272 21.0095 9.61558C21.0095 4.30394 16.3016 0 10.5 0ZM6.98098 12.0548C7.97962 12.083 8.87364 11.4521 9.15897 10.5009H10.6807C10.3764 12.2714 8.79755 13.5522 6.98098 13.5051C4.85054 13.5616 3.08152 11.8853 3.02446 9.77569C3.02446 9.71918 3.02446 9.66267 3.02446 9.60616C2.98641 7.49657 4.67935 5.74486 6.80978 5.70719C6.86685 5.70719 6.92391 5.70719 6.98098 5.70719C8.81658 5.6601 10.4049 6.96918 10.6902 8.76798H9.16848C8.9212 7.77911 8.00815 7.10103 6.98098 7.1387C5.66848 7.08219 4.56522 8.09932 4.50815 9.38955C4.50815 9.4649 4.50815 9.53082 4.50815 9.60616C4.48913 10.9435 5.56386 12.036 6.9144 12.0548C6.93342 12.0548 6.96196 12.0548 6.98098 12.0548ZM17.0149 13.3545H15.6168V10.2372C15.6834 9.69092 15.284 9.2012 14.7418 9.13527C14.6753 9.13527 14.6182 9.13527 14.5516 9.13527C13.8288 9.13527 13.3628 9.57791 13.3628 10.4632V13.3545H11.9647V5.73545H13.3628V8.60788C13.7242 8.0899 14.3424 7.80736 14.9701 7.85445C15.5217 7.83562 16.0543 8.05223 16.4253 8.43836C16.8342 8.88099 17.0435 9.4649 17.0054 10.0676V13.3545H17.0149Z" fill="#BDBDBD"/>
</svg>
